<svg width="213" height="35" viewBox="0 0 213 35" fill="none" xmlns="http://www.w3.org/2000/svg">
<path d="M23.7599 1.20153V5.90043C23.7599 6.12419 23.6859 6.19877 23.5378 6.19877H15.2478V33.5717C15.2478 33.7209 15.1738 33.7955 15.0257 33.7955H8.8822C8.73416 33.7955 8.66014 33.7209 8.66014 33.5717V6.19877H0.296073C0.0740183 6.19877 0 6.12419 0 5.90043V1.20153C0 0.977778 0.0740183 0.903191 0.296073 0.903191H23.5378C23.6859 0.828605 23.7599 0.977778 23.7599 1.20153Z" fill="black"/>
<path d="M25.7583 23.1297V11.569C25.7583 3.73746 30.9396 0.381104 37.8973 0.381104C45.0771 0.381104 50.0363 3.73746 50.0363 11.569V23.0551C50.0363 30.8866 45.1511 34.243 37.8973 34.243C30.9396 34.243 25.7583 30.9612 25.7583 23.1297ZM43.3747 22.7568V11.8673C43.3747 7.83967 41.4502 5.82586 37.8233 5.82586C34.4184 5.82586 32.2719 7.91426 32.2719 11.8673V22.7568C32.2719 26.859 34.3444 28.7982 37.8233 28.7982C41.4502 28.8728 43.3747 26.859 43.3747 22.7568Z" fill="black"/>
<path d="M72.7601 12.6877V9.48055C72.7601 7.31757 71.1317 5.75127 67.6529 5.75127C63.9519 5.75127 61.8794 7.61591 61.8794 11.6435V22.8314C61.8794 26.9336 64.026 28.7982 67.6529 28.7982C71.1317 28.7982 72.8341 27.0082 72.8341 24.6214V20.1463H68.097C67.9489 20.1463 67.8749 20.0717 67.8749 19.848V15.2982C67.8749 15.1491 67.9489 14.9999 68.097 14.9999H79.1257C79.2737 14.9999 79.3477 15.1491 79.3477 15.2982V33.4971C79.3477 33.6463 79.2737 33.7209 79.1257 33.7209H74.3145C74.1665 33.7209 74.0924 33.6463 74.0924 33.4971L73.3523 30.3645H72.9082C71.5758 32.3038 69.5033 34.1684 65.5063 34.1684C59.6589 34.1684 55.2178 31.1104 55.2178 23.0551V11.6435C55.2178 3.58829 60.325 0.381104 67.4308 0.381104C74.5366 0.381104 79.2737 3.36453 79.2737 9.18221V12.6877C79.2737 12.8369 79.1997 12.9115 79.0517 12.9115H72.9082C72.8341 12.9115 72.7601 12.8369 72.7601 12.6877Z" fill="black"/>
<path d="M92.449 6.19878V14.3286H103.182C103.33 14.3286 103.404 14.4032 103.404 14.5524V19.475C103.404 19.6242 103.33 19.6988 103.182 19.6988H92.449V28.4253H104.588C104.736 28.4253 104.81 28.4999 104.81 28.6491V33.5717C104.81 33.7209 104.736 33.7955 104.588 33.7955H86.0834C85.9353 33.7955 85.8613 33.7209 85.8613 33.5717V1.05237C85.8613 0.903198 85.9353 0.828613 86.0834 0.828613H104.588C104.736 0.828613 104.81 0.903198 104.81 1.05237V5.90044C104.81 6.12419 104.736 6.19878 104.588 6.19878H92.449Z" fill="black"/>
<path d="M131.161 1.20153V5.90043C131.161 6.12419 131.086 6.19877 130.938 6.19877H122.648V33.5717C122.648 33.7209 122.574 33.7955 122.426 33.7955H116.209C116.061 33.7955 115.987 33.7209 115.987 33.5717V6.19877H107.697C107.549 6.19877 107.401 6.12419 107.401 5.90043V1.20153C107.401 0.977778 107.475 0.903191 107.697 0.903191H130.938C131.086 0.828605 131.161 0.977778 131.161 1.20153Z" fill="black"/>
<path d="M157.955 1.05237V33.5717C157.955 33.7209 157.881 33.7955 157.733 33.7955H151.589C151.441 33.7955 151.367 33.7209 151.367 33.5717V19.6988H141.597V33.6463C141.597 33.7955 141.523 33.87 141.375 33.87H135.231C135.083 33.87 135.009 33.7955 135.009 33.6463V1.05237C135.009 0.903198 135.083 0.828613 135.231 0.828613H141.375C141.523 0.828613 141.597 0.903198 141.597 1.05237V14.3286H151.367V1.05237C151.367 0.903198 151.441 0.828613 151.589 0.828613H157.733C157.881 0.828613 157.955 0.903198 157.955 1.05237Z" fill="black"/>
<path d="M171.427 6.19878V14.3286H182.677C182.825 14.3286 182.899 14.4032 182.899 14.5524V19.475C182.899 19.6242 182.825 19.6988 182.677 19.6988H171.427V28.4253H183.565C183.714 28.4253 183.788 28.4999 183.788 28.6491V33.5717C183.788 33.7209 183.714 33.7955 183.565 33.7955H165.061C164.913 33.7955 164.839 33.7209 164.839 33.5717V1.05237C164.839 0.903198 164.913 0.828613 165.061 0.828613H183.565C183.714 0.828613 183.788 0.903198 183.788 1.05237V5.90044C183.788 6.12419 183.714 6.19878 183.565 6.19878H171.427Z" fill="black"/>
<path d="M212.063 33.87H205.697C205.623 33.87 205.475 33.7955 205.401 33.7209C205.105 33.1242 205.105 31.9308 205.105 31.4087V23.8756C205.105 21.3397 203.921 20.5192 201.33 20.5192H195.927V33.5717C195.927 33.7209 195.853 33.7955 195.704 33.7955H189.487C189.339 33.7955 189.265 33.7209 189.265 33.5717V1.05237C189.265 0.903198 189.339 0.828613 189.487 0.828613H201.996C208.14 0.828613 211.47 2.84242 211.47 7.91425V11.3452C211.47 14.9253 209.694 17.1629 207.103 17.6104V17.9087C209.768 18.2816 211.692 19.8479 211.692 23.1297V29.3949C211.692 30.9612 211.766 32.3037 212.211 33.5717C212.285 33.7209 212.211 33.87 212.063 33.87ZM204.883 9.03303C204.883 6.94463 203.847 6.12419 201.404 6.12419H195.853V15.2236H201.626C203.847 15.2236 204.957 14.4032 204.957 12.3148V9.03303H204.883Z" fill="black"/>
</svg>
