<svg width="154" height="55" viewBox="0 0 154 55" fill="none" xmlns="http://www.w3.org/2000/svg">
<path d="M122.881 29.536H122.955V29.4614C122.955 29.4614 122.881 29.4614 122.881 29.536Z" fill="black"/>
<path d="M17.4049 22.5249C16.5907 22.5249 15.7765 22.5995 14.9623 22.8232C12.9638 23.2708 10.8172 24.3895 8.44865 26.0304C7.78249 26.4779 7.19034 26.8509 6.45016 27.373C2.37915 30.5802 0.306641 33.4144 0.306641 35.8011C0.306641 37.6658 1.56495 38.71 4.00755 38.71C5.11783 38.71 6.45016 38.2625 8.07856 37.3674C8.30061 36.6962 8.37463 35.8757 8.37463 34.9807C6.30212 36.1741 4.74774 36.7708 3.85952 36.7708C2.82326 36.7708 2.30513 36.3978 2.30513 35.5028C2.30513 33.6382 4.30363 31.2514 8.30061 28.4918C8.30061 28.4918 8.37463 28.4918 8.37463 28.4172C10.8172 26.7017 13.0378 25.5829 14.9623 24.9116C16.1466 24.5387 17.2568 24.2404 18.2931 24.2404C18.7372 24.2404 19.6254 24.3895 19.9215 24.3895C20.0695 24.3895 20.1435 24.315 20.2916 24.315V23.5691C20.2916 23.4199 20.2916 23.1962 20.2916 23.047C19.6254 22.7487 18.5892 22.5249 17.4049 22.5249Z" fill="#A9F300"/>
<path d="M33.2449 26.4034C30.8023 28.7155 28.7298 30.6547 26.8793 32.1465C23.9926 34.5332 21.8461 35.9503 20.3657 36.3232C20.0696 36.3978 19.8476 36.4724 19.6255 36.4724C18.8853 36.4724 18.5893 35.652 18.5893 34.0857C18.5893 31.326 19.1814 29.536 20.3657 28.5663V26.4779C20.2917 26.4779 20.2917 26.4034 20.1436 26.4034C19.9216 26.4034 19.2554 26.9255 17.9971 27.9697C16.9609 28.8647 15.9986 29.6105 15.0364 30.431V32.4448C15.6285 31.9227 16.2947 31.4006 16.8128 30.8785C17.1089 30.5802 17.405 30.3564 17.479 30.3564C17.701 30.3564 17.701 30.431 17.627 30.5802C17.0349 32.6686 16.8128 34.1603 16.8128 35.2045C16.8128 37.2929 17.627 38.3371 19.3294 38.3371C19.6995 38.3371 20.1436 38.1879 20.5878 38.0387C22.1421 37.5166 24.2887 36.1741 26.9533 34.0111C27.4715 33.5636 27.9896 33.1906 28.5817 32.6686C30.0621 31.4006 31.4685 29.9835 32.9488 28.6409C33.541 28.1188 34.0591 27.5967 34.6512 27.0746C35.6875 26.0304 36.7978 24.9116 37.834 23.8674V21.9282C36.2797 23.3453 34.7993 24.9116 33.2449 26.4034Z" fill="#A9F300"/>
<path d="M39.3883 45.8702C39.2403 45.8702 39.1663 45.7956 39.1663 45.6465L39.0923 45.4227C34.8732 49.5249 32.1345 51.6133 31.0243 51.6133C30.4321 51.6133 30.2841 50.7183 30.7282 49.0028C30.9503 48.1078 31.2463 47.1382 31.6164 46.1686C32.2086 44.5277 32.8747 42.7376 33.837 40.7238C34.9472 38.4863 36.3536 35.9503 37.908 33.2653V32.2957H36.2796C34.3551 35.5028 32.8747 38.3371 31.6904 40.7238C30.6542 42.8868 29.914 44.6769 29.3959 46.2432C28.7297 48.257 28.3596 49.8233 28.3596 50.9421C28.1376 53.3288 28.8777 54.0746 29.766 54.0746C31.4684 54.0746 33.0968 53.3288 35.3913 51.2404C36.5016 50.2708 37.4639 49.3758 38.204 48.6299L40.7207 45.9448H39.3883V45.8702Z" fill="#A9F300"/>
<path d="M58.1891 0C57.819 0 57.1528 0.596685 56.1906 1.79006C55.3024 2.68508 54.1181 4.10221 52.4156 6.11602C49.4549 9.62155 46.3461 13.1271 43.0153 16.6326C43.2374 16.9309 43.4594 17.3039 43.6075 17.6768C45.902 15.1409 48.1226 12.6796 50.1211 10.2928C48.4187 12.8287 46.4202 15.9613 44.1996 19.4669C43.0893 21.1823 41.9051 23.047 40.7208 25.0608C40.2766 25.732 39.8325 26.4779 39.3884 27.1492H41.609C42.0531 26.4779 42.4972 25.732 42.9413 25.0608C43.3854 24.3149 43.9035 23.5691 44.3477 22.8978C45.754 20.7348 47.0123 18.5718 48.4927 16.4834C51.5274 12.0083 53.3779 9.47237 54.1181 8.87569C57.0048 6.48895 58.5592 4.25138 58.9293 2.01381C59.2253 0.671271 58.9293 0 58.1891 0Z" fill="#A9F300"/>
<path d="M77.2857 21.1077C75.5833 21.1077 74.1769 20.9586 73.1407 20.7348C73.2147 19.8398 73.2147 19.0193 73.1407 18.2735H72.7706C72.6225 18.2735 72.4745 18.1989 72.4745 17.9751V15.9613C71.8823 14.8425 70.9941 14.0967 69.8098 13.9475C67.5893 13.9475 66.405 15.663 67.1452 18.2735C67.5893 19.7652 68.9216 20.9586 71.1422 21.7044C71.5123 21.8536 69.8839 25.9558 69.7358 26.2541C69.0697 27.8204 68.2555 29.3122 67.2192 30.7293C65.2207 33.6381 62.7781 36.174 60.3355 38.6354C58.7071 40.3508 57.0787 41.9917 55.3763 43.6326C54.192 44.6768 52.1195 46.616 50.8611 44.6022C50.417 43.7818 50.4911 42.7376 50.7131 41.768C50.7871 41.5442 50.8611 41.395 50.9352 41.1713V36.3978C49.9729 38.2624 49.0847 40.2017 48.6406 42.2155C48.3445 43.7072 48.5666 45.4972 49.6769 46.616C50.8612 47.7348 52.8596 47.7348 54.34 47.0635C56.1905 46.1685 57.5228 44.453 58.9291 43.0359C63.9624 38.1133 68.6255 32.3702 71.7343 25.9558C71.8824 25.6575 73.1407 22.3757 72.8446 22.3757C74.1029 22.5994 75.2132 22.7486 76.2494 22.7486C77.8038 22.8232 79.4322 22.7486 80.9866 22.674V20.884C79.2102 21.0331 77.7298 21.1077 77.2857 21.1077ZM69.1437 18.1989C68.9216 17.826 68.6255 17.453 68.4775 17.0801C68.2555 16.3342 68.4775 15.9613 69.1437 15.9613C69.3657 15.9613 69.5878 16.0359 69.8098 16.1851C70.55 16.7072 71.1422 18.1243 71.0682 19.9889C70.1799 19.5414 69.5878 18.8702 69.1437 18.1989Z" fill="#A9F300"/>
<path d="M96.0863 25.0607C94.5319 25.8065 91.127 27.8949 88.5364 29.1629C88.2403 29.3121 87.9442 29.5358 87.6482 29.685C84.9835 31.1767 82.4669 32.6684 80.9865 33.638C80.6164 33.8618 80.2463 34.0855 80.0243 34.2347C79.4321 34.5331 79.0621 34.7568 78.692 34.6822C78.0258 34.6076 78.988 33.1905 80.9865 30.58V27.8204C79.8022 29.5358 78.5439 31.2513 77.3596 33.0413C76.6194 34.0855 75.3611 35.5027 75.9533 36.8452C76.1013 37.2927 76.4714 37.5911 76.9155 37.7402C77.2856 37.8894 77.7297 37.8148 78.0998 37.6657C79.1361 37.2181 80.1723 36.3977 81.0605 35.801C81.7267 35.3535 82.4669 34.906 83.3551 34.3093C84.7615 33.4889 86.2418 32.6684 87.6482 31.848C88.3884 31.475 89.0545 31.0275 89.7947 30.6546C93.3476 28.6408 96.1603 27.2983 98.3808 26.4032C99.4171 25.9557 99.9352 25.9557 100.083 26.1795V23.3452C99.121 23.4198 97.6407 24.0911 96.0863 25.0607Z" fill="#A9F300"/>
<path d="M151.6 22.8232C150.194 23.942 148.639 25.1354 146.937 26.4033C144.346 28.3425 141.534 30.2072 138.943 31.7735C138.055 32.2956 137.24 32.8177 136.426 33.2652V35.279C138.129 34.3094 140.053 33.116 142.052 31.8481C144.05 30.5055 146.049 29.0884 147.899 27.5967C149.528 26.3287 151.082 25.0608 152.414 23.8674C153.969 22.4503 153.006 21.7044 151.6 22.8232Z" fill="#A9F300"/>
<path d="M136.426 19.3923V21.3316C136.574 21.5553 136.574 21.9282 136.426 22.3758V22.4503C135.982 23.4945 134.058 25.4338 131.467 26.8509C130.949 27.1492 130.357 27.2984 129.839 27.5968C127.692 28.5664 125.398 29.3122 122.955 29.536V31.1023C125.25 30.9531 127.544 30.431 129.839 29.536C130.653 29.1631 131.541 28.7901 132.355 28.3426C133.984 27.373 135.316 26.478 136.426 25.5829C138.129 24.1658 139.165 22.8979 139.313 21.7045C139.387 20.2874 138.277 19.3923 136.426 19.3923Z" fill="#A9F300"/>
<path d="M68.0335 22.5995C67.2933 21.9283 66.183 21.9283 65.2208 22.0028C62.4821 22.3758 60.0395 24.0167 58.115 25.8813C57.967 25.9559 57.893 26.1051 57.7449 26.2542L50.8612 33.2653C48.9367 35.1299 46.7902 37.3675 44.4216 39.978V41.768C44.6437 41.5443 44.8657 41.3205 45.0138 41.0968C47.2343 38.71 49.0848 36.7708 50.8612 34.9807C50.8612 34.9807 58.189 27.5968 60.1135 26.1796C60.2615 26.0305 60.7057 25.8067 60.8537 25.6575C61.8899 24.9117 63.5184 24.315 64.7767 24.5388C65.3688 24.6133 65.8869 24.9117 66.4051 25.0609C66.9232 25.21 67.5894 25.2846 68.1075 24.9863C68.9217 24.6133 68.7736 23.1962 68.0335 22.5995Z" fill="#A9F300"/>
<path d="M127.47 25.6574C128.284 25.0607 129.098 24.464 129.839 24.0165V22.1519C128.358 23.1215 126.804 24.2403 125.027 25.6574C124.287 26.2541 123.621 26.8507 122.955 27.4474C122.585 27.8204 122.141 28.1933 121.771 28.4916C120.216 29.9088 118.366 31.4005 116.367 32.9668C113.851 34.906 110.964 36.9944 107.559 39.232C107.189 39.4557 106.967 39.6049 106.597 39.8286C104.006 41.5441 101.786 42.8867 100.009 44.0054C97.4926 45.4972 95.6422 46.4668 94.6059 46.8397C92.3113 47.6601 91.2011 47.4364 91.2011 46.0193C91.2011 45.1242 91.9413 43.185 93.4956 40.4253C95.05 37.7402 96.3823 35.5027 97.4926 33.7126C97.7147 33.2651 98.1588 32.6684 98.7509 31.9226C99.2691 31.1767 99.6391 30.58 100.083 29.9088V26.4778C100.009 26.7016 99.8612 26.9999 99.7132 27.2983L95.9382 33.0414C91.2751 39.9032 88.9065 44.6021 88.9065 47.138C88.9065 49.301 90.3869 49.9723 93.4216 49.2264C95.4201 48.7043 97.9367 47.5855 100.823 45.9447C102.6 44.9005 104.598 43.6325 106.745 42.2154C107.189 41.917 107.633 41.6187 108.077 41.3204C111.112 39.232 113.851 37.069 116.441 34.906C117.033 34.3839 117.7 33.9364 118.218 33.4143C117.848 34.3093 117.7 35.1298 117.7 36.0248C117.7 38.2623 119.328 39.9032 122.067 39.9032C122.363 39.9032 122.733 39.8286 123.029 39.8286C125.027 39.6795 127.322 39.1574 129.913 38.2623V36.3977C128.136 37.069 126.286 37.5911 124.435 37.8894C123.991 37.964 123.547 38.0386 123.029 38.1132C121.845 38.1878 120.66 38.1878 119.994 37.2181C119.698 36.7706 119.624 36.2485 119.624 35.7264C119.624 34.011 120.734 32.4447 121.697 31.1021C122.067 30.58 122.511 30.1325 123.029 29.5358C124.213 28.1933 125.768 26.9253 127.47 25.6574Z" fill="#A9F300"/>
</svg>
