<svg width="16" height="16" viewBox="0 0 16 16" fill="none" xmlns="http://www.w3.org/2000/svg">
<path fill-rule="evenodd" clip-rule="evenodd" d="M8.99158 10V13L5.99438 16H2.99719L0 13V10L2.99719 7H5.99438L6.99344 8L8 7L6.99344 6C6.99344 6 6.991 3.00244 6.99344 3C8.15657 1.83578 9.99063 0 9.99063 0H12.9879C12.9879 0 15.0197 1.91292 15.985 3C16.0187 3.03792 15.985 6 15.985 6C15.985 6 14.0645 8.0421 12.9879 9C12.9405 9.0421 9.99063 9 9.99063 9L8.99158 8L8 9L8.99158 10ZM5.49484 9.5L4.99533 9H3.99625L1.99814 11V12L3.99625 14H4.99533L6.99344 12V11L6.49393 10.5L4.99533 12L3.99625 11L5.49484 9.5ZM10.9897 7C10.9897 7 11.9543 7.03384 11.9888 7C12.7833 6.21967 13.9869 5 13.9869 5V4L11.9888 2H10.9897L8.99158 4V5L9.49112 5.5L10.9897 4L11.9888 5L10.4902 6.5L10.9897 7Z" fill="black"/>
</svg>
